PathFileType	4	(X/Y/Z)	/Users/itak/Documents/Research/Walk-IL/dataset/trc/00339_00011.trc
DataRate	CameraRate	NumFrames	NumMarkers	Units	OrigDataRate	OrigDataStartFrame	OrigNumFrames
100.000000	100.000000	4	53	mm	100.000000	0	695
Frame#	Time	RPSI			LPSI			L3			STRN			T10			C7			CLAV			RBAK			LBAK			LSHO			LUPA			LAEL			LAOL			LWTS			LWPS			LFRA			LIFD			LHPS			LHTS			RSHO			RUPA			RAEL			RAOL			RWTS			RWPS			RFRA			RIFD			RHTS			RHPS			RBHD			LFHD			RFHD			LBHD			LHIP			RHIP			RASI			LASI			LKNE			LTHI			LANK			LTIP			LTOE			LMT1			LMT5			LHEE			RKNE			RTHI			RANK			RTIP			RTOE			RMT5			RHEE			RMT1			
		X1	Y1	Z1	X2	Y2	Z2	X3	Y3	Z3	X4	Y4	Z4	X5	Y5	Z5	X6	Y6	Z6	X7	Y7	Z7	X8	Y8	Z8	X9	Y9	Z9	X10	Y10	Z10	X11	Y11	Z11	X12	Y12	Z12	X13	Y13	Z13	X14	Y14	Z14	X15	Y15	Z15	X16	Y16	Z16	X17	Y17	Z17	X18	Y18	Z18	X19	Y19	Z19	X20	Y20	Z20	X21	Y21	Z21	X22	Y22	Z22	X23	Y23	Z23	X24	Y24	Z24	X25	Y25	Z25	X26	Y26	Z26	X27	Y27	Z27	X28	Y28	Z28	X29	Y29	Z29	X30	Y30	Z30	X31	Y31	Z31	X32	Y32	Z32	X33	Y33	Z33	X34	Y34	Z34	X35	Y35	Z35	X36	Y36	Z36	X37	Y37	Z37	X38	Y38	Z38	X39	Y39	Z39	X40	Y40	Z40	X41	Y41	Z41	X42	Y42	Z42	X43	Y43	Z43	X44	Y44	Z44	X45	Y45	Z45	X46	Y46	Z46	X47	Y47	Z47	X48	Y48	Z48	X49	Y49	Z49	X50	Y50	Z50	X51	Y51	Z51	X52	Y52	Z52	X53	Y53	Z53	

1	0	-31.86827659606934	982.1666259765625	1192.359252929688	-34.76744079589844	983.3643798828125	1063.75244140625	-35.86657333374023	1036.412841796875	1130.247802734375	184.0130004882812	1221.816650390625	1113.3876953125	-53.33691787719727	1154.470581054688	1115.080444335938	-16.89687156677246	1403.436279296875	1097.319091796875	139.7696075439453	1347.145263671875	1106.354614257812	-64.06489562988281	1265.30908203125	1166.62158203125	-23.65604782104492	1364.713134765625	995.7094116210938	63.53397750854492	1380.937377929688	940.7440795898438	52.47930908203125	1258.891357421875	875.3414306640625	80.98055267333984	1054.855102539062	871.8843994140625	11.37880706787109	1040.863891601562	921.0352783203125	178.0626525878906	817.1138916015625	939.8451538085938	147.8172149658203	802.6824951171875	879.0708618164062	101.1341247558594	950.6716918945312	871.6739501953125	184.1660766601562	657.1793212890625	953.880859375	145.3582458496094	732.3284912109375	887.9481811523438	194.0613098144531	738.2648315429688	929.052001953125	38.83845138549805	1392.23779296875	1261.4697265625	27.86379814147949	1327.707763671875	1325.5166015625	45.63521194458008	1058.88232421875	1360.859252929688	-2.03723931312561	1051.999389648438	1278.99267578125	151.2547302246094	830.9429321289062	1304.62158203125	123.8722152709961	815.8011474609375	1374.171875	72.45623779296875	991.917724609375	1367.13720703125	161.9629669189453	658.4591064453125	1307.983032226562	180.9881744384766	729.4223022460938	1314.984985351562	136.3276977539062	730.19091796875	1368.442138671875	22.11649131774902	1605.474365234375	1177.335693359375	201.4434509277344	1621.5712890625	1073.278564453125	183.8869171142578	1622.01171875	1171.951538085938	20.88332176208496	1600.52001953125	1032.32421875	49.91064834594727	920.6889038085938	959.6168212890625	52.39192962646484	922.6433715820312	1295.208251953125	152.3833770751953	952.1666259765625	1254.713623046875	172.3792724609375	946.177490234375	1015.277221679688	76.33988952636719	460.6437377929688	983.8626098632812	82.51096343994141	600.6991577148438	971.313232421875	-17.36225509643555	49.55003356933594	1008.9736328125	28.41678428649902	247.2713165283203	984.4940795898438	184.9451904296875	42.40555191040039	1078.643676757812	124.763671875	42.65229034423828	1128.246704101562	108.720832824707	43.93986511230469	1002.316162109375	-57.30389404296875	46.64831161499023	1074.24951171875	59.49085998535156	459.9432983398438	1265.262084960938	113.3393173217773	715.2579345703125	1295.040283203125	-9.782423973083496	49.49985504150391	1229.859375	61.39253616333008	341.7976989746094	1252.554443359375	181.2938232421875	42.66231155395508	1168.176025390625	90.61141967773438	36.55147552490234	1243.58837890625	-61.8037223815918	53.73707580566406	1183.449584960938	112.7398529052734	28.16309547424316	1117.064697265625	
2	0.01	-31.8499698638916	982.1840209960938	1192.379516601562	-34.67194747924805	983.324462890625	1063.774536132812	-35.85836791992188	1036.404296875	1130.2666015625	184.0282287597656	1221.807250976562	1113.41796875	-53.32296752929688	1154.439086914062	1115.101806640625	-16.9007682800293	1403.4130859375	1097.339721679688	139.7687835693359	1347.130126953125	1106.356567382812	-64.06661987304688	1265.294921875	1166.64453125	-23.67187690734863	1364.690673828125	995.7396850585938	63.53206253051758	1380.93212890625	940.7650756835938	52.46756744384766	1258.882080078125	875.3663330078125	80.99571228027344	1054.847778320312	871.8916015625	11.41559219360352	1040.843627929688	921.0584716796875	178.155029296875	817.1307983398438	939.8168334960938	147.8808898925781	802.7172241210938	879.0730590820312	101.1743850708008	950.6722412109375	871.678955078125	184.28271484375	657.2227783203125	953.8533935546875	145.4501495361328	732.3341674804688	887.9395141601562	194.2000274658203	738.2619018554688	929.0222778320312	38.82011413574219	1392.218505859375	1261.497436523438	27.83402824401855	1327.661254882812	1325.545288085938	45.63456726074219	1058.861206054688	1360.85888671875	-2.050626754760742	1051.972290039062	1278.9853515625	151.2473602294922	830.8822021484375	1304.70849609375	123.8820953369141	815.7647094726562	1374.200561523438	72.46171569824219	991.9176025390625	1367.150756835938	161.9049530029297	658.4159545898438	1308.064575195312	180.9647979736328	729.3665771484375	1315.0478515625	136.2920227050781	730.1739501953125	1368.482788085938	22.04097557067871	1605.442260742188	1177.371704101562	201.3872222900391	1621.585571289062	1073.306762695312	183.8522338867188	1622.018676757812	1171.969482421875	20.8443717956543	1600.5009765625	1032.359741210938	49.91634750366211	920.6805419921875	959.6259155273438	52.38559722900391	922.6571044921875	1295.23876953125	152.4162139892578	952.1699829101562	1254.706909179688	172.4007568359375	946.15771484375	1015.292236328125	76.34610748291016	460.6089172363281	983.8203735351562	82.49838256835938	600.6810302734375	971.2923583984375	-17.37631988525391	49.55160522460938	1008.918151855469	28.40280342102051	247.2498931884766	984.4595947265625	184.9266357421875	42.38235855102539	1078.637451171875	124.7745742797852	42.65946197509766	1128.244018554688	108.7100448608398	43.93711471557617	1002.319763183594	-57.29045486450195	46.67160415649414	1074.241577148438	59.52698135375977	459.9431762695312	1265.299682617188	113.3179092407227	715.2944946289062	1295.073486328125	-9.77934455871582	49.50902938842773	1229.864990234375	61.42501449584961	341.7979125976562	1252.571655273438	181.2893218994141	42.67109298706055	1168.180297851562	90.61054229736328	36.55878448486328	1243.584228515625	-61.80144882202148	53.77594757080078	1183.4931640625	112.7467727661133	28.16714286804199	1117.060180664062	
3	0.02	-31.8253231048584	982.209716796875	1192.409301757812	-34.56631088256836	983.28076171875	1063.809448242188	-35.84135437011719	1036.393188476562	1130.294799804688	184.0486145019531	1221.795166015625	1113.462768554688	-53.30048370361328	1154.403076171875	1115.124389648438	-16.90203094482422	1403.384643554688	1097.368774414062	139.7703247070312	1347.113159179688	1106.36181640625	-64.06334686279297	1265.278442382812	1166.671508789062	-23.68306732177734	1364.661010742188	995.7818603515625	63.52947998046875	1380.925415039062	940.7926635742188	52.45676803588867	1258.870483398438	875.3976440429688	81.01584625244141	1054.839599609375	871.9024658203125	11.46017074584961	1040.818359375	921.08837890625	178.2608184814453	817.148681640625	939.7838134765625	147.9530029296875	802.7545166015625	879.07275390625	101.222038269043	950.6732788085938	871.6830444335938	184.4128723144531	657.2717895507812	953.8121948242188	145.5536651611328	732.3414916992188	887.9210815429688	194.3699493408203	738.2666625976562	928.9813842773438	38.79975128173828	1392.19580078125	1261.533081054688	27.80035591125488	1327.605834960938	1325.587524414062	45.63345718383789	1058.83837890625	1360.861450195312	-2.062594413757324	1051.940551757812	1278.976684570312	151.2440032958984	830.81201171875	1304.812866210938	123.8992614746094	815.7183227539062	1374.235961914062	72.46804046630859	991.9133911132812	1367.168212890625	161.8417358398438	658.3627319335938	1308.157470703125	180.933349609375	729.2994995117188	1315.120971679688	136.2563171386719	730.155517578125	1368.529052734375	21.95221138000488	1605.404174804688	1177.413696289062	201.3174743652344	1621.604125976562	1073.346557617188	183.8035583496094	1622.027221679688	1172.000732421875	20.79636192321777	1600.478149414062	1032.403930664062	49.92708587646484	920.6673583984375	959.6422729492188	52.37936019897461	922.6770629882812	1295.283447265625	152.4589538574219	952.1719970703125	1254.701782226562	172.4265289306641	946.12939453125	1015.312255859375	76.34173583984375	460.5674133300781	983.7732543945312	82.48193359375	600.6644897460938	971.2618408203125	-17.39090728759766	49.5418586730957	1008.851379394531	28.37936210632324	247.2247772216797	984.4170532226562	184.9062652587891	42.35994720458984	1078.630859375	124.7854309082031	42.66714859008789	1128.242431640625	108.6955947875977	43.93105316162109	1002.321533203125	-57.26425933837891	46.66785430908203	1074.208862304688	59.57744598388672	459.9483947753906	1265.351806640625	113.2886428833008	715.3351440429688	1295.115356445312	-9.777324676513672	49.5274772644043	1229.880249023438	61.46833419799805	341.7909545898438	1252.592651367188	181.2840423583984	42.68022918701172	1168.18408203125	90.60940551757812	36.56682968139648	1243.578979492188	-61.7993049621582	53.81396865844727	1183.537841796875	112.7524261474609	28.17055702209473	1117.0556640625	
4	0.03	-31.79302597045898	982.2426147460938	1192.449951171875	-34.4573860168457	983.2362670898438	1063.859497070312	-35.80612564086914	1036.376586914062	1130.337524414062	184.0744171142578	1221.78076171875	1113.522338867188	-53.26817321777344	1154.365844726562	1115.147827148438	-16.8995418548584	1403.35205078125	1097.406860351562	139.7756652832031	1347.095703125	1106.371826171875	-64.05230712890625	1265.260009765625	1166.700805664062	-23.68526077270508	1364.625366210938	995.8349609375	63.5258674621582	1380.917236328125	940.8265991210938	52.44915008544922	1258.857421875	875.4342041015625	81.04007720947266	1054.831298828125	871.9169921875	11.51025009155273	1040.789672851562	921.1237182617188	178.3704528808594	817.164794921875	939.748291015625	148.0262145996094	802.7896118164062	879.0678100585938	101.2734985351562	950.6748046875	871.6851196289062	184.5454406738281	657.3230590820312	953.7553100585938	145.6593017578125	732.3504028320312	887.890380859375	194.5580291748047	738.2800903320312	928.9287719726562	38.77940368652344	1392.171508789062	1261.575805664062	27.7662410736084	1327.545166015625	1325.643920898438	45.63254165649414	1058.81640625	1360.8681640625	-2.070307016372681	1051.90576171875	1278.9677734375	151.2474212646484	830.7383422851562	1304.928100585938	123.9248199462891	815.6644287109375	1374.2763671875	72.47502136230469	991.9034423828125	1367.189208984375	161.7807159423828	658.3009643554688	1308.254638671875	180.8988494873047	729.2266235351562	1315.200073242188	136.2279205322266	730.1390380859375	1368.577880859375	21.85716247558594	1605.363403320312	1177.458618164062	201.2380981445312	1621.626098632812	1073.397583007812	183.7411193847656	1622.036987304688	1172.048217773438	20.74135589599609	1600.452270507812	1032.455444335938	49.94327545166016	920.6494750976562	959.6668701171875	52.377685546875	922.7022094726562	1295.343505859375	152.5115966796875	952.1725463867188	1254.699462890625	172.4545593261719	946.0924072265625	1015.336853027344	76.31877136230469	460.5243225097656	983.7275390625	82.46098327636719	600.6525268554688	971.2211303710938	-17.40761375427246	49.5113639831543	1008.785400390625	28.3447322845459	247.1986083984375	984.3680419921875	184.8843994140625	42.34065628051758	1078.62451171875	124.7949447631836	42.67459106445312	1128.2421875	108.6772079467773	43.92091751098633	1002.32080078125	-57.22729873657227	46.63252258300781	1074.149658203125	59.64371871948242	459.9603881835938	1265.418090820312	113.2545547485352	715.3740844726562	1295.161987304688	-9.777919769287109	49.5523567199707	1229.902954101562	61.52317810058594	341.7741394042969	1252.616455078125	181.2779388427734	42.68882751464844	1168.186157226562	90.60797119140625	36.57533264160156	1243.572265625	-61.79755783081055	53.84873580932617	1183.580688476562	112.7557907104492	28.17280387878418	1117.051635742188	
